<svg width="800" height="520" viewBox="0 0 800 520" fill="none" xmlns="http://www.w3.org/2000/svg">
  <rect width="800" height="520" rx="32" fill="#0B1020"/>
  <rect x="40" y="40" width="720" height="440" rx="24" fill="url(#paint0_linear)"/>
  <rect x="76" y="88" width="160" height="20" rx="10" fill="#E9F2FF" fill-opacity="0.7"/>
  <rect x="76" y="132" width="220" height="72" rx="20" fill="#111A30"/>
  <rect x="316" y="132" width="180" height="72" rx="20" fill="#111A30"/>
  <rect x="516" y="132" width="180" height="72" rx="20" fill="#111A30"/>
  <path d="M100 340C150 300 210 360 258 314C302 272 360 250 412 282C458 310 514 392 574 356C630 322 668 224 712 216" stroke="#7FB4FF" stroke-width="16" stroke-linecap="round"/>
  <circle cx="258" cy="314" r="12" fill="#7FB4FF"/>
  <circle cx="412" cy="282" r="12" fill="#7FB4FF"/>
  <circle cx="574" cy="356" r="12" fill="#7FB4FF"/>
  <defs>
    <linearGradient id="paint0_linear" x1="40" y1="40" x2="760" y2="480" gradientUnits="userSpaceOnUse">
      <stop stop-color="#17223F"/>
      <stop offset="1" stop-color="#0F1832"/>
    </linearGradient>
  </defs>
</svg>
