<svg width="960" height="600" viewBox="0 0 960 600" fill="none" xmlns="http://www.w3.org/2000/svg">
  <rect width="960" height="600" rx="36" fill="#08131A"/>
  <path d="M0 420C118 360 184 392 282 340C392 281 432 182 546 172C690 159 767 304 960 222V600H0V420Z" fill="#13213B"/>
  <path d="M0 480C128 427 214 454 330 402C452 348 514 274 646 286C762 297 828 372 960 320V600H0V480Z" fill="#24325B"/>
  <circle cx="748" cy="138" r="68" fill="#FFD37A"/>
  <circle cx="748" cy="138" r="102" fill="#FFD37A" fill-opacity=".12"/>
  <path d="M278 378C278 280 346 206 454 190C434 287 382 354 278 378Z" fill="#7FB4FF"/>
  <path d="M278 378C334 322 384 274 454 190" stroke="#172852" stroke-width="10" stroke-linecap="round"/>
  <path d="M501 390C520 299 592 244 695 250C653 340 593 388 501 390Z" fill="#FFB86A"/>
  <path d="M501 390C557 342 612 302 695 250" stroke="#4E2E13" stroke-width="10" stroke-linecap="round"/>
  <rect x="92" y="92" width="270" height="156" rx="22" fill="#F3FFF8"/>
  <rect x="124" y="126" width="154" height="18" rx="9" fill="#1B5D3E"/>
  <rect x="124" y="162" width="204" height="12" rx="6" fill="#8CA7D8"/>
  <rect x="124" y="190" width="168" height="12" rx="6" fill="#D7C197"/>
  <circle cx="314" cy="171" r="28" fill="#7FB4FF"/>
  <path d="M697 427C659 398 636 355 636 309C700 318 744 360 762 424C740 434 718 435 697 427Z" fill="#7FB4FF"/>
  <path d="M762 424C716 388 684 350 636 309" stroke="#172852" stroke-width="9" stroke-linecap="round"/>
</svg>
