<svg width="800" height="800" viewBox="0 0 800 800" fill="none" xmlns="http://www.w3.org/2000/svg">
  <rect width="800" height="800" fill="black"/>
  
  <!-- Top Left Paw -->
  <g transform="translate(300, 280) scale(0.8)">
    <circle cx="0" cy="-40" r="18" fill="white"/>
    <circle cx="-35" cy="-15" r="18" fill="white"/>
    <circle cx="35" cy="-15" r="18" fill="white"/>
    <circle cx="0" cy="15" r="12" fill="white"/> <!-- Placeholder for pad center -->
    <path d="M-30 20 C-35 50, 35 50, 30 20 C25 10, -25 10, -30 20Z" fill="white"/> <!-- Main Pad -->
  </g>

  <!-- Bottom Left Paw -->
  <g transform="translate(250, 600) scale(1.1)">
    <circle cx="-30" cy="-60" r="22" fill="white"/>
    <circle cx="30" cy="-60" r="22" fill="white"/>
    <circle cx="-65" cy="-25" r="22" fill="white"/>
    <circle cx="65" cy="-25" r="22" fill="white"/>
    <path d="M-50 25 C-60 70, 60 70, 50 25 C40 10, -40 10, -50 25Z" fill="white"/>
  </g>

  <!-- Mid Right Paw -->
  <g transform="translate(550, 480) scale(1.0)">
    <circle cx="-25" cy="-55" r="20" fill="white"/>
    <circle cx="25" cy="-55" r="20" fill="white"/>
    <circle cx="-55" cy="-20" r="20" fill="white"/>
    <circle cx="55" cy="-20" r="20" fill="white"/>
    <path d="M-45 20 C-55 60, 55 60, 45 20 C35 8, -35 8, -45 20Z" fill="white"/>
  </g>
</svg>
